<?xml version="1.0" encoding="UTF-8" standalone="no"?>
<svg width="18px" height="18px" viewBox="0 0 18 18" version="1.1" xmlns="http://www.w3.org/2000/svg" xmlns:xlink="http://www.w3.org/1999/xlink">
    <!-- Generator: Sketch 3.8.2 (29753) - http://www.bohemiancoding.com/sketch -->
    <title>Page 1</title>
    <desc>Created with Sketch.</desc>
    <defs></defs>
    <g id="Page-1" stroke="none" stroke-width="1" fill="none" fill-rule="evenodd">
        <g id="popup" transform="translate(-1229.000000, -587.000000)" fill="#CCCCCC">
            <g id="history" transform="translate(828.000000, 536.000000)">
                <g id="dispositions" transform="translate(373.000000, 51.000000)">
                    <g id="Page-1" transform="translate(28.000000, 0.000000)">
                        <path d="M0,18 L18,18 L18,5.51020408 L0,5.51020408 L0,18 Z M12.5510204,10.9591837 L16.4693878,10.9591837 L16.4693878,7.04081633 L12.5510204,7.04081633 L12.5510204,10.9591837 Z M7.04081633,10.9591837 L10.9591837,10.9591837 L10.9591837,7.04081633 L7.04081633,7.04081633 L7.04081633,10.9591837 Z M1.53061224,10.9591837 L5.44897959,10.9591837 L5.44897959,7.04081633 L1.53061224,7.04081633 L1.53061224,10.9591837 Z M12.5510204,16.4693878 L16.4693878,16.4693878 L16.4693878,12.5510204 L12.5510204,12.5510204 L12.5510204,16.4693878 Z M7.04081633,16.4693878 L10.9591837,16.4693878 L10.9591837,12.5510204 L7.04081633,12.5510204 L7.04081633,16.4693878 Z M1.53061224,16.4693878 L5.44897959,16.4693878 L5.44897959,12.5510204 L1.53061224,12.5510204 L1.53061224,16.4693878 Z" id="Fill-1"></path>
                        <polygon id="Fill-2" points="13.7142918 -1.83673469e-05 13.7142918 1.77555306 4.22449592 1.77555306 4.22449592 -1.83673469e-05 2.69388367 -1.83673469e-05 2.69388367 1.83677755 6.12244912e-06 1.83677755 6.12244912e-06 3.30610408 18.0000061 3.30610408 18.0000061 1.77555306 15.2449041 1.77555306 15.2449041 -1.83673469e-05"></polygon>
                    </g>
                </g>
            </g>
        </g>
    </g>
</svg>