<?xml version="1.0" encoding="UTF-8" standalone="no"?>
<svg width="15px" height="15px" viewBox="0 0 15 15" version="1.1" xmlns="http://www.w3.org/2000/svg" xmlns:xlink="http://www.w3.org/1999/xlink">
    <!-- Generator: Sketch 3.8.2 (29753) - http://www.bohemiancoding.com/sketch -->
    <title>Group</title>
    <desc>Created with Sketch.</desc>
    <defs></defs>
    <g id="Page-1" stroke="none" stroke-width="1" fill="none" fill-rule="evenodd">
        <g id="popup" transform="translate(-911.000000, -611.000000)" fill="#CCCCCC">
            <g id="history" transform="translate(828.000000, 536.000000)">
                <g id="log" transform="translate(82.000000, 49.000000)">
                    <g id="Group" transform="translate(1.000000, 26.000000)">
                        <path d="M7.44045918,13.5707755 C10.7753571,13.5958776 13.5304592,10.8689388 13.5705612,7.50220408 C13.6106633,4.152 10.8629082,1.34546939 7.52494898,1.32710204 C4.09607143,1.30812245 1.36147959,4.00597959 1.32719388,7.44159184 C1.29382653,10.786898 4.04494898,13.5450612 7.44045918,13.5707755 M7.4719898,14.8978163 C3.3280102,14.8978163 -0.00290816327,11.5773061 0.000153061225,7.44863265 C0.00290816327,3.29546939 3.33168367,-0.003 7.51760204,6.12244898e-05 C11.5865816,0.00281632653 14.8988265,3.35608163 14.8979082,7.47159184 C14.8969898,11.5604694 11.559949,14.8978163 7.4719898,14.8978163" id="Fill-1"></path>
                        <path d="M7.76458163,7.28387755 L9.05060204,7.28387755 C9.45621429,7.28387755 9.86182653,7.28020408 10.2674388,7.28510204 C10.6761122,7.29 10.9761122,7.57132653 10.9782551,7.94173469 C10.9800918,8.31459184 10.6877449,8.60265306 10.2750918,8.60510204 C9.22662245,8.61153061 8.17784694,8.61214286 7.12937755,8.6044898 C6.71733673,8.60142857 6.44060204,8.32438776 6.43937755,7.93285714 C6.43631633,6.76928571 6.43386735,5.60602041 6.43937755,4.4427551 C6.44152041,3.94989796 6.85907143,3.63581633 7.30478571,3.77571429 C7.59162245,3.86571429 7.76335714,4.12040816 7.76396939,4.46755102 C7.7655,5.34 7.76458163,6.2127551 7.76458163,7.08520408 L7.76458163,7.28387755" id="Fill-3"></path>
                    </g>
                </g>
            </g>
        </g>
    </g>
</svg>