<?xml version="1.0" encoding="UTF-8" standalone="no"?>
<svg width="8px" height="8px" viewBox="0 0 8 8" version="1.1" xmlns="http://www.w3.org/2000/svg" xmlns:xlink="http://www.w3.org/1999/xlink">
    <!-- Generator: Sketch 3.8.2 (29753) - http://www.bohemiancoding.com/sketch -->
    <title>Fill 3</title>
    <desc>Created with Sketch.</desc>
    <defs></defs>
    <g id="Page-1" stroke="none" stroke-width="1" fill="none" fill-rule="evenodd">
        <g id="popup" transform="translate(-1358.000000, -387.000000)" fill="#FFFFFF">
            <g id="close-icon" transform="translate(1354.000000, 383.000000)">
                <path d="M11.7215887,10.7040778 L9.0412507,8.06096667 L11.7348845,5.40485556 C12.0208563,5.12285556 11.9831099,4.62418889 11.697138,4.34218889 C11.4111662,4.06018889 10.9053634,4.02285556 10.6193915,4.30485556 L7.92587042,6.96107778 L5.29871549,4.37041111 C5.01533521,4.09096667 4.51640563,4.0483 4.22908169,4.32196667 C3.95133521,4.60552222 3.97950423,5.1123 4.26288451,5.39174444 L6.89003944,7.98241111 L4.19651831,10.6386333 C3.91054648,10.9206333 3.94829296,11.4193 4.23426479,11.7013 C4.52023662,11.9833 5.02603944,12.0205222 5.31201127,11.7385222 L8.00553239,9.08241111 L10.6858704,11.7254111 C10.9704901,12.0061889 11.4352789,11.9813 11.7215887,11.7029667 C12.0038423,11.4207444 12.0063211,10.9848556 11.7215887,10.7040778" id="Fill-3"></path>
            </g>
        </g>
    </g>
</svg>