<?xml version="1.0" encoding="UTF-8" standalone="no"?>
<svg width="8px" height="8px" viewBox="0 0 8 8" version="1.1" xmlns="http://www.w3.org/2000/svg" xmlns:xlink="http://www.w3.org/1999/xlink">
    <!-- Generator: Sketch 3.8.2 (29753) - http://www.bohemiancoding.com/sketch -->
    <title>Group 2</title>
    <desc>Created with Sketch.</desc>
    <defs></defs>
    <g id="Page-1" stroke="none" stroke-width="1" fill="none" fill-rule="evenodd">
        <g id="popup" transform="translate(-921.000000, -519.000000)" fill="#CCCCCC">
            <g id="fields" transform="translate(921.000000, 512.000000)">
                <g id="Group-2" transform="translate(0.000000, 7.000000)">
                    <path d="M7.41797101,7.39260985 C7.41797101,7.05710962 7.19250132,6.78521971 6.91428162,6.78521971 L0.503689389,6.78521971 C0.225469687,6.78521971 0,7.05710962 0,7.39260985 C0,7.72811008 0.225469687,8 0.503689389,8 L6.91428162,8 C7.19250132,8 7.41797101,7.72811008 7.41797101,7.39260985" id="Fill-1"></path>
                    <path d="M6.97533793,3.58261712 L0.564745701,3.58261712 C0.279291187,3.58261712 0.0457624705,3.90099999 0.0457624705,4.24522455 C0.0457624705,4.58944911 0.279291187,4.90783198 0.564745701,4.90783198 L6.97533793,4.90783198 C7.26079244,4.90783198 7.49432116,4.58944911 7.49432116,4.24522455 C7.49432116,3.90099999 7.26079244,3.58261712 6.97533793,3.58261712" id="Fill-3"></path>
                    <path d="M0.564745701,1.7052294 L6.97533793,1.7052294 C7.26079244,1.7052294 7.49432116,1.44206381 7.49432116,1.09783925 C7.49432116,0.75361469 7.26079244,0.490449105 6.97533793,0.490449105 L0.564745701,0.490449105 C0.279291187,0.490449105 0.0457624705,0.75361469 0.0457624705,1.09783925 C0.0457624705,1.44206381 0.279291187,1.7052294 0.564745701,1.7052294" id="Fill-6"></path>
                </g>
            </g>
        </g>
    </g>
</svg>