<?xml version="1.0" encoding="UTF-8" standalone="no"?>
<svg width="30px" height="30px" viewBox="0 0 30 30" version="1.1" xmlns="http://www.w3.org/2000/svg" xmlns:xlink="http://www.w3.org/1999/xlink">
    <!-- Generator: Sketch 3.8.2 (29753) - http://www.bohemiancoding.com/sketch -->
    <title>logo</title>
    <desc>Created with Sketch.</desc>
    <defs></defs>
    <g id="Page-1" stroke="none" stroke-width="1" fill="none" fill-rule="evenodd">
        <g id="icon" transform="translate(-1317.000000, -730.000000)" fill="#FFFFFF">
            <g id="logo" transform="translate(1317.000000, 730.000000)">
                <path d="M7.70795833,3.85379167 C7.70795833,5.982125 5.982125,7.70754167 3.85420833,7.70754167 C1.72545833,7.70754167 4.16666667e-05,5.982125 4.16666667e-05,3.85379167 C4.16666667e-05,1.72545833 1.72545833,4.16666667e-05 3.85420833,4.16666667e-05 C5.982125,4.16666667e-05 7.70795833,1.72545833 7.70795833,3.85379167" id="Fill-1" opacity="0.5"></path>
                <path d="M18.719125,3.85379167 C18.719125,5.982125 16.9937083,7.70754167 14.865375,7.70754167 C12.736625,7.70754167 11.0112083,5.982125 11.0112083,3.85379167 C11.0112083,1.72545833 12.736625,4.16666667e-05 14.865375,4.16666667e-05 C16.9937083,4.16666667e-05 18.719125,1.72545833 18.719125,3.85379167" id="Fill-3" opacity="0.5"></path>
                <path d="M29.6574583,3.85379167 C29.6574583,5.982125 27.931625,7.70754167 25.8037083,7.70754167 C23.6749583,7.70754167 21.9495417,5.982125 21.9495417,3.85379167 C21.9495417,1.72545833 23.6749583,4.16666667e-05 25.8037083,4.16666667e-05 C27.931625,4.16666667e-05 29.6574583,1.72545833 29.6574583,3.85379167" id="Fill-5"></path>
                <path d="M7.70795833,14.8649167 C7.70795833,16.99325 5.982125,18.7186667 3.85420833,18.7186667 C1.72545833,18.7186667 4.16666667e-05,16.99325 4.16666667e-05,14.8649167 C4.16666667e-05,12.7365833 1.72545833,11.0111667 3.85420833,11.0111667 C5.982125,11.0111667 7.70795833,12.7365833 7.70795833,14.8649167" id="Fill-7" opacity="0.5"></path>
                <path d="M18.719125,14.8649167 C18.719125,16.99325 16.9937083,18.7186667 14.865375,18.7186667 C12.736625,18.7186667 11.0112083,16.99325 11.0112083,14.8649167 C11.0112083,12.7365833 12.736625,11.0111667 14.865375,11.0111667 C16.9937083,11.0111667 18.719125,12.7365833 18.719125,14.8649167" id="Fill-9"></path>
                <path d="M29.6574583,14.8649167 C29.6574583,16.99325 27.931625,18.7186667 25.8037083,18.7186667 C23.6749583,18.7186667 21.9495417,16.99325 21.9495417,14.8649167 C21.9495417,12.7365833 23.6749583,11.0111667 25.8037083,11.0111667 C27.931625,11.0111667 29.6574583,12.7365833 29.6574583,14.8649167" id="Fill-11"></path>
                <path d="M7.70795833,25.80325 C7.70795833,27.9315833 5.982125,29.657 3.85420833,29.657 C1.72545833,29.657 4.16666667e-05,27.9315833 4.16666667e-05,25.80325 C4.16666667e-05,23.6749167 1.72545833,21.9495 3.85420833,21.9495 C5.982125,21.9495 7.70795833,23.6749167 7.70795833,25.80325" id="Fill-13"></path>
                <path d="M18.719125,25.80325 C18.719125,27.9315833 16.9937083,29.657 14.865375,29.657 C12.736625,29.657 11.0112083,27.9315833 11.0112083,25.80325 C11.0112083,23.6749167 12.736625,21.9495 14.865375,21.9495 C16.9937083,21.9495 18.719125,23.6749167 18.719125,25.80325" id="Fill-15"></path>
                <path d="M29.6574583,25.80325 C29.6574583,27.9315833 27.931625,29.657 25.8037083,29.657 C23.6749583,29.657 21.9495417,27.9315833 21.9495417,25.80325 C21.9495417,23.6749167 23.6749583,21.9495 25.8037083,21.9495 C27.931625,21.9495 29.6574583,23.6749167 29.6574583,25.80325" id="Fill-17" opacity="0.5"></path>
                <polygon id="Fill-19" points="16.3650417 27.3030417 3.85420833 27.3030417 3.85420833 24.3034583 13.3650417 24.3034583 13.3650417 13.3655417 24.303375 13.3655417 24.303375 3.853875 27.303375 3.853875 27.303375 16.365125 16.3650417 16.365125"></polygon>
            </g>
        </g>
    </g>
</svg>