<?xml version="1.0" encoding="UTF-8" standalone="no"?>
<svg width="54px" height="10px" viewBox="0 0 54 10" version="1.1" xmlns="http://www.w3.org/2000/svg" xmlns:xlink="http://www.w3.org/1999/xlink">
    <!-- Generator: Sketch 3.8.2 (29753) - http://www.bohemiancoding.com/sketch -->
    <title>logo</title>
    <desc>Created with Sketch.</desc>
    <defs>
        <polygon id="path-1" points="0 0.0968181818 53.030303 0.0968181818 53.030303 10 0 10"></polygon>
    </defs>
    <g id="Page-1" stroke="none" stroke-width="1" fill="none" fill-rule="evenodd">
        <g id="popup" transform="translate(-797.000000, -386.000000)">
            <g id="logo" transform="translate(797.000000, 386.000000)">
                <path d="M15.7481364,4.60060606 L15.7481364,7.38166667 C15.7481364,8.06 15.7481364,8.37212121 16.3179848,8.37212121 C16.6978333,8.37212121 17.3488939,8.345 17.3488939,8.345 L17.4302576,9.79636364 C17.4302576,9.79636364 16.5213182,10 16.0467727,10 C14.4052576,10 13.9302576,9.37606061 13.9302576,7.42242424 L13.9302576,4.60060606 L13.129803,4.60060606 L13.129803,3.05409091 L13.9302576,3.05409091 L13.9302576,1.16833333 L15.7481364,0.0968181818 L15.7481364,3.05409091 L17.4167727,3.05409091 L17.4167727,4.60060606 L15.7481364,4.60060606 Z" id="Fill-19" fill="#CCCCCC"></path>
                <path d="M22.4230909,5.83527273 C22.4230909,4.73633333 22.1111212,4.38360606 21.2564242,4.38360606 C20.3882424,4.38360606 20.0896061,4.80421212 20.0761212,5.83527273 L22.4230909,5.83527273 Z M23.9696061,8.27709091 L23.9967273,9.62012121 C23.9967273,9.62012121 22.4364242,9.9999697 21.1750606,9.9999697 C19.1264242,9.9999697 18.2582424,8.98254545 18.2582424,6.54057576 C18.2582424,4.12587879 19.2756667,2.89133333 21.2564242,2.89133333 C23.2506667,2.89133333 24.213697,3.93724242 24.213697,5.95739394 C24.213697,6.81663636 24.0780909,7.21890909 24.0780909,7.21890909 L20.0896061,7.21890909 C20.1032424,8.03284848 20.4830909,8.39921212 21.4599091,8.39921212 C22.5721818,8.39921212 23.9696061,8.27709091 23.9696061,8.27709091 L23.9696061,8.27709091 Z" id="Fill-21" fill="#CCCCCC"></path>
                <path d="M25.5165455,9.83713636 L25.5165455,3.05410606 L27.3209394,3.05410606 L27.3209394,3.43410606 C27.3209394,3.43410606 28.2433636,2.89122727 29.0165455,2.89122727 C30.9159394,2.89122727 31.4042727,4.08516667 31.4042727,6.16077273 L31.4042727,9.83713636 L29.5863939,9.83713636 L29.5863939,6.21516667 C29.5863939,5.18395455 29.4509394,4.51910606 28.5691212,4.51910606 C27.9313939,4.51910606 27.3344242,4.7635 27.3344242,4.7635 L27.3344242,9.83713636 L25.5165455,9.83713636 Z" id="Fill-23" fill="#CCCCCC"></path>
                <path d="M34.4572727,9.83713636 L33.439697,9.83713636 L33.439697,3.93592424 L32.5851515,3.93592424 L32.5851515,3.05410606 L33.439697,3.05410606 L33.439697,2.6285 C33.439697,0.674863636 33.9416667,0.145924242 35.2712121,0.145924242 C35.7324242,0.145924242 36.6413636,0.240772727 36.6413636,0.240772727 L36.6278788,1.08183333 C36.6278788,1.08183333 35.8681818,1.05471212 35.4610606,1.05471212 C34.7013636,1.05471212 34.4572727,1.38016667 34.4572727,2.64198485 L34.4572727,3.05410606 L36.4242424,3.05410606 L36.4242424,3.93592424 L34.4572727,3.93592424 L34.4572727,9.83713636 Z" id="Fill-25" fill="#CCCCCC"></path>
                <path d="M41.9867121,6.36421212 C41.9867121,4.47860606 41.5797424,3.80027273 40.1282273,3.80027273 C38.690197,3.80027273 38.2697424,4.47860606 38.2697424,6.36421212 C38.2697424,8.29072727 38.5273182,9.0910303 40.1282273,9.0910303 C41.7426212,9.0910303 41.9867121,8.29072727 41.9867121,6.36421212 M43.0314091,6.36421212 C43.0314091,8.83330303 42.420803,9.97284848 40.1282273,9.97284848 C37.8491364,9.97284848 37.2250455,8.83330303 37.2250455,6.36421212 C37.2250455,4.03087879 37.9845909,2.91845455 40.1282273,2.91845455 C42.2853485,2.91845455 43.0314091,4.03087879 43.0314091,6.36421212" id="Fill-27" fill="#CCCCCC"></path>
                <mask id="mask-2" fill="white">
                    <use xlink:href="#path-1"></use>
                </mask>
                <g id="Clip-30"></g>
                <polygon id="Fill-29" fill="#CCCCCC" mask="url(#mask-2)" points="44.7684848 0.0968181818 45.7857576 0.0968181818 45.7857576 9.83712121 44.7684848 9.83712121"></polygon>
                <path d="M52.0263788,8.56210606 L52.0263788,3.96301515 C51.8094091,3.92240909 50.9683485,3.80028788 50.4119848,3.80028788 C48.9875909,3.80028788 48.5669848,4.73634848 48.5669848,6.49998485 C48.5669848,8.69771212 49.2859242,9.06392424 50.0865303,9.06392424 C51.0495606,9.06392424 52.0263788,8.56210606 52.0263788,8.56210606 L52.0263788,8.56210606 Z M53.0303182,9.83710606 L52.0263788,9.83710606 L52.0263788,9.37604545 C52.0263788,9.37604545 50.9816818,9.97286364 49.9644091,9.97286364 C48.6348636,9.97286364 47.5222879,9.43028788 47.5222879,6.49998485 C47.5222879,4.11240909 48.2957727,2.9184697 50.3577424,2.9184697 C50.9412273,2.9184697 51.8230455,3.05407576 52.0263788,3.09483333 L52.0263788,0.0968030303 L53.0303182,0.0968030303 L53.0303182,9.83710606 Z" id="Fill-31" fill="#CCCCCC" mask="url(#mask-2)"></path>
                <polygon id="Fill-32" fill="#CCCCCC" mask="url(#mask-2)" points="5.43333333 9.21090909 1.27954545 9.21090909 1.27954545 8.21484848 4.43727273 8.21484848 4.43727273 4.58318182 8.06893939 4.58318182 8.06893939 1.42545455 9.065 1.42545455 9.065 5.57924242 5.43333333 5.57924242"></polygon>
                <path d="M2.55909091,1.42542424 C2.55909091,2.13209091 1.98621212,2.7049697 1.27954545,2.7049697 C0.572878788,2.7049697 0,2.13209091 0,1.42542424 C0,0.718757576 0.572878788,0.145878788 1.27954545,0.145878788 C1.98621212,0.145878788 2.55909091,0.718757576 2.55909091,1.42542424" id="Fill-33" fill="#CCCCCC" opacity="0.5" mask="url(#mask-2)"></path>
                <path d="M6.21487879,1.42542424 C6.21487879,2.13209091 5.642,2.7049697 4.93533333,2.7049697 C4.22866667,2.7049697 3.65578788,2.13209091 3.65578788,1.42542424 C3.65578788,0.718757576 4.22866667,0.145878788 4.93533333,0.145878788 C5.642,0.145878788 6.21487879,0.718757576 6.21487879,1.42542424" id="Fill-34" fill="#CCCCCC" opacity="0.5" mask="url(#mask-2)"></path>
                <path d="M9.84651515,1.42542424 C9.84651515,2.13209091 9.27363636,2.7049697 8.5669697,2.7049697 C7.86030303,2.7049697 7.28742424,2.13209091 7.28742424,1.42542424 C7.28742424,0.718757576 7.86030303,0.145878788 8.5669697,0.145878788 C9.27363636,0.145878788 9.84651515,0.718757576 9.84651515,1.42542424" id="Fill-35" fill="#CCCCCC" mask="url(#mask-2)"></path>
                <path d="M2.55909091,5.08122727 C2.55909091,5.78789394 1.98621212,6.36077273 1.27954545,6.36077273 C0.572878788,6.36077273 0,5.78789394 0,5.08122727 C0,4.37456061 0.572878788,3.80168182 1.27954545,3.80168182 C1.98621212,3.80168182 2.55909091,4.37456061 2.55909091,5.08122727" id="Fill-36" fill="#CCCCCC" opacity="0.5" mask="url(#mask-2)"></path>
                <path d="M6.21487879,5.08122727 C6.21487879,5.78789394 5.642,6.36077273 4.93533333,6.36077273 C4.22866667,6.36077273 3.65578788,5.78789394 3.65578788,5.08122727 C3.65578788,4.37456061 4.22866667,3.80168182 4.93533333,3.80168182 C5.642,3.80168182 6.21487879,4.37456061 6.21487879,5.08122727" id="Fill-37" fill="#CCCCCC" mask="url(#mask-2)"></path>
                <path d="M9.84651515,5.08122727 C9.84651515,5.78789394 9.27363636,6.36077273 8.5669697,6.36077273 C7.86030303,6.36077273 7.28742424,5.78789394 7.28742424,5.08122727 C7.28742424,4.37456061 7.86030303,3.80168182 8.5669697,3.80168182 C9.27363636,3.80168182 9.84651515,4.37456061 9.84651515,5.08122727" id="Fill-38" fill="#CCCCCC" mask="url(#mask-2)"></path>
                <path d="M2.55909091,8.71284848 C2.55909091,9.41951515 1.98621212,9.99239394 1.27954545,9.99239394 C0.572878788,9.99239394 0,9.41951515 0,8.71284848 C0,8.00618182 0.572878788,7.43330303 1.27954545,7.43330303 C1.98621212,7.43330303 2.55909091,8.00618182 2.55909091,8.71284848" id="Fill-39" fill="#CCCCCC" mask="url(#mask-2)"></path>
                <path d="M6.21487879,8.71284848 C6.21487879,9.41951515 5.642,9.99239394 4.93533333,9.99239394 C4.22866667,9.99239394 3.65578788,9.41951515 3.65578788,8.71284848 C3.65578788,8.00618182 4.22866667,7.43330303 4.93533333,7.43330303 C5.642,7.43330303 6.21487879,8.00618182 6.21487879,8.71284848" id="Fill-40" fill="#CCCCCC" mask="url(#mask-2)"></path>
                <path d="M9.84651515,7.71284848 C9.84651515,8.41951515 9.27363636,8.99239394 8.5669697,8.99239394 C7.86030303,8.99239394 7.28742424,8.41951515 7.28742424,7.71284848 C7.28742424,7.00618182 7.86030303,6.43330303 8.5669697,6.43330303 C9.27363636,6.43330303 9.84651515,7.00618182 9.84651515,7.71284848" id="Fill-41" fill="#CCCCCC" opacity="0.5" mask="url(#mask-2)"></path>
                <polygon id="Fill-42" fill="#CCCCCC" mask="url(#mask-2)" points="5.43333333 12.2109091 1.27954545 12.2109091 1.27954545 11.2148485 4.43727273 11.2148485 4.43727273 7.58318182 8.06893939 7.58318182 8.06893939 4.42545455 9.065 4.42545455 9.065 8.57924242 5.43333333 8.57924242"></polygon>
            </g>
        </g>
    </g>
</svg>