<?xml version="1.0" encoding="UTF-8" standalone="no"?>
<svg width="19px" height="20px" viewBox="0 0 19 20" version="1.1" xmlns="http://www.w3.org/2000/svg" xmlns:xlink="http://www.w3.org/1999/xlink">
    <!-- Generator: Sketch 3.8.2 (29753) - http://www.bohemiancoding.com/sketch -->
    <title>Page 1</title>
    <desc>Created with Sketch.</desc>
    <defs></defs>
    <g id="Page-1" stroke="none" stroke-width="1" fill="none" fill-rule="evenodd">
        <g id="popup" transform="translate(-1309.000000, -587.000000)" fill="#CCCCCC">
            <g id="history" transform="translate(828.000000, 536.000000)">
                <g id="dispositions" transform="translate(373.000000, 51.000000)">
                    <g id="Page-1" transform="translate(108.000000, 0.000000)">
                        <path d="M12.1293861,15.3424826 C13.2149359,14.2143768 14.2397022,13.1494966 15.3031264,12.0443819 L12.1293861,12.0443819 L12.1293861,15.3424826 Z M17.4240528,1.54858537 L1.50172381,1.54858537 L1.50172381,17.5137727 L10.6380918,17.5137727 L10.6380918,10.5496316 L17.4240528,10.5496316 L17.4240528,1.54858537 Z M-1.64502162e-05,18.9845605 L-1.64502162e-05,0.0809548521 L18.9323732,0.0809548521 L18.9323732,0.510420343 C18.9323732,3.73477115 18.9371437,6.959041 18.921516,10.1833108 C18.9204468,10.3960602 18.8178797,10.6572206 18.671555,10.8133015 C16.1722736,13.4780924 13.6606545,16.1317115 11.1418797,18.7786923 C11.0275506,18.8989102 10.8211004,18.9985656 10.657174,18.9991323 C7.18938615,19.0115994 3.72151602,19.0084421 0.253728139,19.0073897 C0.186282251,19.0073897 0.118836364,18.9956513 -1.64502162e-05,18.9845605 L-1.64502162e-05,18.9845605 Z" id="Fill-1"></path>
                        <polygon id="Fill-4" points="3.85264069 7.61396575 15.0459437 7.61396575 15.0459437 6.19126518 3.85264069 6.19126518"></polygon>
                        <polygon id="Fill-6" points="3.85264069 12.0443819 8.00426407 12.0443819 8.00426407 10.6216814 3.85264069 10.6216814"></polygon>
                    </g>
                </g>
            </g>
        </g>
    </g>
</svg>