<?xml version="1.0" encoding="UTF-8" standalone="no"?>
<svg width="16px" height="20px" viewBox="0 0 16 20" version="1.1" xmlns="http://www.w3.org/2000/svg" xmlns:xlink="http://www.w3.org/1999/xlink">
    <!-- Generator: Sketch 3.8.2 (29753) - http://www.bohemiancoding.com/sketch -->
    <title>Fill 1</title>
    <desc>Created with Sketch.</desc>
    <defs></defs>
    <g id="Page-1" stroke="none" stroke-width="1" fill="none" fill-rule="evenodd">
        <g id="popup" transform="translate(-1329.000000, -416.000000)" fill="#CCCCCC">
            <g id="call-info" transform="translate(1022.000000, 404.000000)">
                <path d="M319.405278,30.8670045 L319.259969,30.8123023 C319.228887,30.8004105 319.186925,30.7821764 319.113882,30.7449155 C313.204372,27.1861 309.184661,21.3060076 308.074249,14.6291655 C308.062593,14.53086 308.067255,14.4729867 308.067255,14.4301762 L308.067255,14.2589345 L311.670463,12.9984051 L313.029534,16.7276695 L311.752831,17.5616802 C311.319234,17.8470831 311.15139,18.3790424 311.335552,18.8872181 C312.350387,21.6469055 314.073897,24.1584509 316.321143,26.1515145 C316.709671,26.4924124 317.283138,26.5312589 317.717513,26.2474416 L318.987999,25.4213587 L321.972671,28.0906686 L319.405278,30.8670045 Z M322.630837,27.2717208 L319.74252,24.7126082 L319.741743,24.7126082 C319.353215,24.369332 318.77664,24.3296927 318.343043,24.6143028 L317.077219,25.4435567 L316.944342,25.3246389 C314.905347,23.5044027 313.318599,21.1855041 312.35505,18.6184637 L312.286669,18.436123 L313.565703,17.5989411 C313.993861,17.3167094 314.172584,16.7902996 314.000077,16.3177993 L312.68219,12.7312362 C312.580396,12.4553468 312.374476,12.2341595 312.102507,12.1073138 C311.827429,11.9812609 311.517383,11.9646124 311.227542,12.0660889 L307.674842,13.3147266 C307.43784,13.405897 306.896232,13.7230113 307.017452,14.7306421 C308.177597,21.7364903 312.399342,27.8956433 318.618898,31.6367995 C318.794512,31.7247987 318.983337,31.7913928 319.149627,31.823897 C319.244428,31.842131 319.335343,31.8524373 319.42315,31.8524373 C319.720763,31.8524373 319.9803,31.74224 320.215748,31.5139177 L322.708543,28.818446 C322.910578,28.6012226 323.013149,28.3213692 322.998385,28.0312096 C322.982844,27.7394645 322.853075,27.4699173 322.630837,27.2717208 L322.630837,27.2717208 Z" id="Fill-1"></path>
            </g>
        </g>
    </g>
</svg>