<?xml version="1.0" encoding="UTF-8" standalone="no"?>
<svg width="26px" height="28px" viewBox="0 0 26 28" version="1.1" xmlns="http://www.w3.org/2000/svg" xmlns:xlink="http://www.w3.org/1999/xlink">
    <!-- Generator: Sketch 3.8.2 (29753) - http://www.bohemiancoding.com/sketch -->
    <title>Group 4</title>
    <desc>Created with Sketch.</desc>
    <defs></defs>
    <g id="Page-1" stroke="none" stroke-width="1" fill="none" fill-rule="evenodd">
        <g id="popup" transform="translate(-848.000000, -595.000000)" fill="#00D95A">
            <g id="history" transform="translate(828.000000, 536.000000)">
                <g id="icon">
                    <g id="Group-4" transform="translate(20.000000, 59.000000)">
                        <path d="M25.4396869,13.4659883 L25.3934303,13.4273379 L25.3621914,13.393612 C25.3287169,13.3574811 25.2941534,13.3286795 25.256552,13.3056611 L25.2129894,13.2790353 L20.2376808,9.17568969 C19.8044048,8.81838907 19.3274515,9.07519889 19.112619,9.33504347 C19.0283598,9.43702302 18.7718563,9.74737067 19.166843,10.0731212 L19.1878219,10.0905281 C19.9330864,10.7050966 20.7036287,11.3272234 21.4639109,11.9767204 L22.9548986,13.2372357 L11.6340079,13.2372357 C11.0306085,13.2372357 11,13.8607367 11,13.981612 C11,14.10243 11.0306085,14.7259883 11.6340079,14.7259883 L22.8716138,14.7259883 L21.6870547,15.6612112 C21.0095414,16.1660701 20.09444,17.1089658 19.4197928,17.6746917 L19.1708554,17.8815138 C18.9512081,18.0653748 18.9481129,18.2125895 18.9649074,18.3080414 C19.0047443,18.5346181 19.2289771,18.7697265 19.4979189,18.8677551 C19.7625617,18.964066 20.0100661,18.9179146 20.2334965,18.7308472 C21.0630776,18.0363441 21.8926014,17.3378328 22.7221252,16.6394361 C23.5457451,15.946021 24.3693651,15.2526058 25.1928704,14.5630844 L25.2274339,14.534111 L25.2652072,14.5097183 C25.2766711,14.5023891 25.3017769,14.4832643 25.3465432,14.4367122 C25.374515,14.4038451 25.4044356,14.3741846 25.4371649,14.3469862 C25.6564683,14.1633543 25.6490741,14.0119596 25.6466093,13.9622009 L25.6440873,13.9116406 L25.6487302,13.8611948 C25.6568695,13.7722132 25.6439727,13.6344463 25.4396869,13.4659883" id="Fill-1"></path>
                        <path d="M4.81977012,26.7113862 L4.70025954,26.555468 C4.67486712,26.5219138 4.64196589,26.4742738 4.58842973,26.3854067 C0.622455305,18.6114271 0.241741019,9.61037192 3.52068723,1.7007441 C3.57399411,1.58742713 3.61778599,1.52839237 3.6464456,1.48247008 L3.76114137,1.29866639 L8.47702321,2.35653961 L7.43948793,7.26873592 L5.50909111,7.30967662 C4.85204084,7.32593838 4.31541827,7.78458869 4.17292268,8.45326762 C3.41493326,12.0944701 3.58459816,15.943468 4.66432038,19.5863883 C4.8534165,20.2122369 5.44357523,20.6376194 6.10039622,20.623648 L8.01881333,20.5870018 L9.43792268,25.4492104 L4.81977012,26.7113862 Z M9.30425425,20.3311081 L9.30345178,20.3305928 C9.11590328,19.7021674 8.5229359,19.2738648 7.86640151,19.2892104 L5.95085037,19.3323842 L5.8877419,19.1158279 C4.91606642,15.7977421 4.76428511,12.24701 5.44833273,8.84692815 L5.49699675,8.60546394 L7.43203643,8.56269093 C8.08111933,8.54620014 8.62576659,8.10077682 8.75685566,7.47819196 L9.74303291,2.74670729 C9.818465,2.38247826 9.74538299,2.00725535 9.53811668,1.68912038 C9.32695266,1.36978296 9.00499058,1.14446599 8.62559463,1.05943531 L3.97196148,0.0226336749 C3.65624719,-0.0381188814 2.86186007,-0.0601066114 2.3172128,1.10255188 C-1.12864699,9.39862549 -0.71778279,18.8343965 3.45924102,27.0114844 C3.58895442,27.2234599 3.74727012,27.4212922 3.90415284,27.567419 C3.9938001,27.6504455 4.08459375,27.7223065 4.1789412,27.7811122 C4.49872515,27.9802042 4.85141033,28.0355744 5.25728776,27.9480243 L9.74114137,26.7227237 C10.1037428,26.6247523 10.4014015,26.3930222 10.5798936,26.0716807 C10.7585576,25.7481061 10.7997128,25.371967 10.6936722,25.0105437 L9.30425425,20.3311081 Z" id="Fill-4"></path>
                    </g>
                </g>
            </g>
        </g>
    </g>
</svg>